# AST/ASF file generated using VICON BodyLanguage
# -----------------------------------------------
:version 1.10
:name VICON
:units
  mass 1.0
  length 0.45
  angle deg
:documentation
   .ast/.asf automatically generated from VICON data using
   VICON BodyBuilder and BodyLanguage model FoxedUp or BRILLIANT.MOD
:root
   order TX TY TZ RX RY RZ
   axis XYZ
   position 0 0 0  
   orientation 0 0 0 
:bonedata
  begin
     id 1 
     name lhipjoint
     direction 0.610259 -0.730986 0.305356 
     length 2.50941 
     axis 0 0 0  XYZ
  end
  begin
     id 2 
     name lfemur
     direction 0.34202 -0.939693 0  
     length 7.48822  
     axis 0 0 20  XYZ
    dof rx ry rz
    limits (-160.0 20.0)
           (-70.0 70.0)
           (-60.0 70.0)
  end
  begin
     id 3 
     name ltibia
     direction 0.34202 -0.939693 0   
     length 7.60141   
     axis 0 0 20   XYZ
    dof rx
    limits (-10.0 170.0)
  end
  begin
     id 4 
     name lfoot
     direction 0.0673488 -0.185039 0.980421   
     length 2.04049   
     axis -90 7.62852e-016 20   XYZ
    dof rx rz
    limits (-45.0 90.0)
           (-70.0 20.0)
  end
  begin
     id 5 
     name ltoes
     direction 1.5356e-011 -4.21729e-011 1   
     length 1.02897   
     axis -90 7.62852e-016 20   XYZ
    dof rx
    limits (-90.0 20.0)
  end
  begin
     id 6 
     name rhipjoint
     direction -0.57612 -0.754205 0.315056   
     length 2.43216  
     axis 0 0 0  XYZ 
  end
  begin
     id 7 
     name rfemur
     direction -0.34202 -0.939693 0   
     length 7.42799   
     axis 0 0 -20   XYZ
    dof rx ry rz
    limits (-160.0 20.0)
           (-70.0 70.0)
           (-70.0 60.0)
  end
  begin
     id 8 
     name rtibia
     direction -0.34202 -0.939693 0   
     length 7.69484   
     axis 0 0 -20   XYZ
    dof rx
    limits (-10.0 170.0)
 end
 begin
     id 9 
     name rfoot
     direction -0.111837 -0.30727 0.945028   
     length 2.15769  
     axis -90 -7.62852e-016 -20   XYZ
    dof rx rz
    limits (-45.0 90.0)
           (-20.0 70.0)
  end
  begin
     id 10 
     name rtoes
     direction -1.53539e-011 -4.21878e-011 1   
     length 1.07391   
     axis -90 -7.62852e-016 -20   XYZ
    dof rx
    limits (-90.0 20.0)
  end
  begin
     id 11 
     name lowerback
     direction 0.00552624 0.990109 -0.140195   
     length 2.12403   
     axis 0 0 0   XYZ
    dof rx ry rz
    limits (-20.0 45.0)
           (-30.0 30.0)
           (-30.0 30.0)
  end
  begin
     id 12 
     name upperback
     direction 0.00361898 0.999976 -0.00584723   
     length 2.13232   
     axis 0 0 0   XYZ
    dof rx ry rz
    limits (-20.0 45.0)
           (-30.0 30.0)
           (-30.0 30.0)
  end
  begin
     id 13 
     name thorax
     direction -0.000331275 0.998253 0.0590847   
     length 2.17688   
     axis 0 0 0   XYZ
    dof rx ry rz
    limits (-20.0 45.0)
           (-30.0 30.0)
           (-30.0 30.0)
  end
  begin
     id 14 
     name lowerneck
     direction -0.0561561 0.979832 0.19177   
     length 1.64159   
     axis 0 0 0   XYZ
    dof rx ry rz
    limits (-20.0 45.0)
           (-30.0 30.0)
           (-30.0 30.0)
  end
  begin
     id 15 
     name upperneck
     direction 0.0827153 0.979385 -0.184293   
     length 1.68939   
     axis 0 0 0   XYZ
    dof rx ry rz
    limits (-20.0 45.0)
           (-30.0 30.0)
           (-30.0 30.0)
  end
  begin
     id 16
     name head
     direction 0.0278583 0.995936 -0.0856488  
     length 1.70207  
     axis 0 0 0   XYZ
    dof rx ry rz
    limits (-20.0 45.0)
           (-30.0 30.0)
           (-30.0 30.0)
  end
  begin
     id 17 
     name lclavicle
     direction 0.950993 0.301131 -0.0702275  
     length 3.41652  
     axis 0 0 0   XYZ
    dof ry rz
    limits (-20.0 10.0)
           (0.0 20.0)
  end
  begin
     id 18 
     name lhumerus
     direction 1 -4.48981e-011 -3.9662e-029   
     length 5.32955   
     axis 180 -30 -90   XYZ
    dof rx ry rz
    limits (-60.0 90.0)
           (-90.0 90.0)
           (-90.0 90.0)
  end
  begin
     id 19
     name lradius
     direction 1 -4.48925e-011 -9.0549e-027   
     length 3.69232   
     axis 180 -30 -90   XYZ
    dof rx
    limits (-10.0 170.0)
  end
  begin
     id 20
     name lwrist
     direction 1 -4.49007e-011 -1.49005e-026   
     length 1.84616   
     axis 9.0955e-015 90 90   XYZ
    dof ry
    limits (-180.0 0.0)
 end
  begin
     id 21 
     name lhand
     direction 1 -4.49016e-011 -2.98023e-026   
     length 0.536598   
     axis 1.90115e-014 90 90   XYZ
    dof rx rz
    limits (-90.0 90.0)
           (-45.0 45.0)
  end
  begin
     id 22 
     name lfingers
     direction 1 -4.48924e-011 -5.9578e-026   
     length 0.432619   
     axis 3.80223e-014 90 90   XYZ
    dof rx
    limits (0.0 90.0)
  end
  begin
     id 23
     name lthumb
     direction 0.707107 -6.34947e-011 0.707107   
     length 0.621157   
     axis -90 45 -3.84942e-014   XYZ
    dof rx rz
    limits (-45.0 45.0)
           (-45.0 45.0)
  end
  begin
     id 24 
     name rclavicle
     direction -0.955495 0.276497 -0.102848   
     length 3.36357  
     axis 0 0 0   XYZ 
    dof ry rz
    limits (-10.0 20.0)
           (-20.0 0.0)
  end
  begin
     id 25 
     name rhumerus
     direction -1 -4.48961e-011 3.30983e-027  
     length 5.23431   
     axis 180 30 90   XYZ
    dof rx ry rz
    limits (-90.0 60.0)
           (-90.0 90.0)
           (-90.0 90.0)
  end
  begin
     id 26 
     name rradius
     direction -1 -4.48965e-011 -6.63263e-027   
     length 3.55301   
     axis 180 30 90   XYZ
    dof rx
    limits (-10.0 170.0)
  end
  begin
     id 27 
     name rwrist
     direction -1 -4.48942e-011 -1.48958e-026   
     length 1.77651   
     axis 9.0955e-015 -90 -90   XYZ
    dof ry
    limits (-180.0 0.0)
  end
  begin
     id 28
     name rhand
     direction -1 -4.48977e-011 -2.97966e-026   
     length 0.772522   
     axis 1.90115e-014 -90 -90   XYZ
    dof rx rz
    limits (-90.0 90.0)
           (-45.0 45.0)
  end
  begin
     id 29
     name rfingers
     direction -1 -4.49135e-011 -5.96389e-026   
     length 0.622827   
     axis 3.80223e-014 -90 -90   XYZ
    dof rx
    limits (0.0 90.0)
  end
  begin
     id 30
     name rthumb
     direction -0.707107 -6.34969e-011 0.707107   
     length 0.894259   
     axis -90 -45 3.84942e-014   XYZ
    dof rx rz
    limits (-45.0 45.0)
           (-45.0 45.0)
  end
:hierarchy
  begin
    root lhipjoint rhipjoint lowerback
    lhipjoint lfemur
    lfemur ltibia
    ltibia lfoot
    lfoot ltoes
    rhipjoint rfemur
    rfemur rtibia
    rtibia rfoot
    rfoot rtoes
    lowerback upperback
    upperback thorax
    thorax lowerneck lclavicle rclavicle
    lowerneck upperneck
    upperneck head
    lclavicle lhumerus
    lhumerus lradius
    lradius lwrist
    lwrist lhand lthumb
    lhand lfingers
    rclavicle rhumerus
    rhumerus rradius
    rradius rwrist
    rwrist rhand rthumb
    rhand rfingers
  end

#!OML:ASF F:\VICON\USERDATA\INSTALL\rory3\rory3.ASF
:FULLY-SPECIFIED
:DEGREES
36
root -12.6152 17.8543 -8.52992 -0.213054 66.7165 -3.45109
lowerback 7.34388 -1.10595 -1.33224
upperback -0.28175 -1.52727 1.25295
thorax -4.34274 -0.710436 2.21465
lowerneck -18.1898 -3.77553 -9.54717
upperneck 34.7808 -4.20116 7.03113
head 15.7324 -1.82769 3.97999
rclavicle -1.92883e-014 2.29099e-014
rhumerus -35.9536 -15.7233 -78.1957
rradius 27.6189
rwrist 8.69444
rhand -14.5308 8.07402
rfingers 7.12502
rthumb 11.6172 -21.5839
lclavicle -1.92883e-014 2.29099e-014
lhumerus -26.5528 -1.43277 89.4136
lradius 28.7576
lwrist -6.18439
lhand -22.1521 25.1893
lfingers 7.12502
lthumb 4.26193 55.1264
rfemur -9.2696 3.57677 24.7205
rtibia 27.3838
rfoot -17.6659 2.70126
rtoes 4.60518
lfemur -7.90063 0.449683 -20.9164
ltibia 24.2238
lfoot -14.5926 7.03421
ltoes 3.52372
37
root -12.6162 17.8611 -8.52187 0.599813 67.2632 -2.61581
lowerback 7.29934 -0.983022 -1.52578
upperback -0.21518 -1.38458 1.14866
thorax -4.25317 -0.638285 2.1977
lowerneck -18.413 -3.64727 -9.66291
upperneck 34.99 -3.95997 7.10877
head 15.8655 -1.72576 4.09331
rclavicle -1.85429e-014 1.18774e-014
rhumerus -36.0104 -15.7279 -78.1241
rradius 27.6394
rwrist 8.35792
rhand -14.4523 8.14029
rfingers 7.12502
rthumb 11.693 -21.5134
lclavicle -1.85429e-014 1.18774e-014
lhumerus -26.4027 -2.00236 89.6166
lradius 28.9888
lwrist -5.80583
lhand -22.3861 25.4103
lfingers 7.12502
lthumb 4.03595 55.3518
rfemur -9.29603 3.43992 24.3835
rtibia 27.4245
rfoot -17.7085 2.33964
rtoes 5.27466
lfemur -7.91939 -0.0244202 -21.2199
ltibia 24.1133
lfoot -14.7035 6.63396
ltoes 5.44343
38
root -12.6174 17.8661 -8.52206 0.717918 67.8357 -2.43708
lowerback 7.35407 -0.913116 -1.38553
upperback -0.117477 -1.28109 1.10094
thorax -4.1914 -0.591602 2.05792
lowerneck -18.5662 -3.49826 -9.62453
upperneck 35.1144 -3.696 7.04124
head 15.9283 -1.6149 4.11473
rclavicle -5.23052e-015 1.63997e-015
rhumerus -36.2803 -15.6641 -78.1754
rradius 27.8219
rwrist 8.24671
rhand -14.5648 8.0516
rfingers 7.12502
rthumb 11.5845 -21.6082
lclavicle -5.23052e-015 1.63997e-015
lhumerus -26.2492 -2.3592 89.8035
lradius 29.21
lwrist -5.18891
lhand -22.8022 26.0392
lfingers 7.12502
lthumb 3.63416 55.988
rfemur -9.18704 3.34711 24.3222
rtibia 27.3962
rfoot -17.7332 1.94673
rtoes 5.63273
lfemur -7.8945 -0.188934 -21.2378
ltibia 24.0675
lfoot -14.6158 6.07803
ltoes 6.02972
39
root -12.6198 17.8687 -8.52656 0.286418 68.4232 -2.86807
lowerback 7.4014 -0.89965 -0.978997
upperback -0.0138908 -1.22799 1.08265
thorax -4.12148 -0.574705 1.80398
lowerneck -18.7171 -3.34219 -9.31972
upperneck 35.1919 -3.42962 6.72634
head 15.9541 -1.5024 3.9763
rclavicle -2.25931e-014 -4.17448e-015
rhumerus -36.3972 -15.7352 -78.2573
rradius 27.8128
rwrist 8.33873
rhand -14.5507 8.24585
rfingers 7.12502
rthumb 11.5981 -21.4132
lclavicle -2.25931e-014 -4.17448e-015
lhumerus -26.1234 -2.70353 89.9477
lradius 29.4782
lwrist -3.96782
lhand -22.8221 26.2899
lfingers 7.12502
lthumb 3.61488 56.239
rfemur -9.08479 3.21996 24.5116
rtibia 27.3473
rfoot -17.7602 1.52229
rtoes 4.93772
lfemur -7.89674 -0.454621 -21.0224
ltibia 24.0693
lfoot -14.3564 5.6376
ltoes 5.69961
40
root -12.6225 17.8687 -8.52939 -0.0106588 68.984 -3.23655
lowerback 7.38317 -0.855135 -0.678419
upperback 0.0404558 -1.14113 1.10416
thorax -4.06341 -0.537852 1.64674
lowerneck -18.8088 -3.23774 -9.21056
upperneck 35.3051 -3.24117 6.59474
head 16.0044 -1.42359 3.94154
rclavicle 4.08751e-015 2.98177e-016
rhumerus -36.4119 -15.8516 -78.183
rradius 27.7765
rwrist 8.18973
rhand -14.3388 8.31902
rfingers 7.12502
rthumb 11.8024 -21.3284
lclavicle 4.08751e-015 2.98177e-016
lhumerus -25.9833 -2.72538 90.0009
lradius 29.5911
lwrist -3.29355
lhand -22.6147 25.4369
lfingers 7.12502
lthumb 3.81517 55.3825
rfemur -9.0963 2.81157 24.64
rtibia 27.3066
rfoot -17.757 1.40336
rtoes 4.86343
lfemur -8.00541 -0.691989 -20.866
ltibia 24.1002
lfoot -14.2195 5.30287
ltoes 5.26631
41
root -12.6213 17.8664 -8.52374 0.195737 69.4154 -3.08204
lowerback 7.32295 -0.69781 -0.669209
upperback 0.0483106 -0.930863 1.10154
thorax -4.02847 -0.434086 1.61529
lowerneck -18.7992 -3.20508 -9.31531
upperneck 35.4555 -3.15845 6.65491
head 16.0724 -1.39088 4.01232
rclavicle -7.26806e-015 -6.55989e-015
rhumerus -36.5942 -16.2057 -77.9193
rradius 27.7798
rwrist 8.32174
rhand -14.2289 8.33874
rfingers 7.12502
rthumb 11.9084 -21.3026
lclavicle -7.26806e-015 -6.55989e-015
lhumerus -25.8961 -2.70328 90.0051
lradius 29.601
lwrist -3.89835
lhand -22.3153 25.1215
lfingers 7.12502
lthumb 4.1043 55.0618
rfemur -9.15489 2.52991 24.5824
rtibia 27.297
rfoot -17.7562 1.26064
rtoes 4.97946
lfemur -8.13509 -1.01039 -20.9564
ltibia 24.1181
lfoot -14.2841 5.46441
ltoes 4.64165
42
root -12.6155 17.8648 -8.49835 0.455381 69.7639 -2.88388
lowerback 7.08534 -0.55296 -0.942147
upperback 0.0917909 -0.758591 1.14577
thorax -3.85139 -0.344795 1.79246
lowerneck -18.7498 -3.16049 -9.33433
upperneck 35.526 -3.0418 6.57118
head 16.0815 -1.35352 4.0051
rclavicle 3.07247e-014 -1.09332e-015
rhumerus -36.6918 -16.3001 -77.7965
rradius 27.6669
rwrist 8.52513
rhand -14.0464 8.45216
rfingers 7.12502
rthumb 12.0844 -21.1789
lclavicle 3.07247e-014 -1.09332e-015
lhumerus -25.8335 -2.45104 89.8583
lradius 29.6614
lwrist -5.138
lhand -21.2769 24.2866
lfingers 7.12502
lthumb 5.10695 54.2051
rfemur -9.20187 3.00715 24.6122
rtibia 27.329
rfoot -17.7022 0.489826
rtoes 4.72572
lfemur -8.25025 -1.19037 -21.0152
ltibia 24.0867
lfoot -14.4722 5.60409
ltoes 4.28959
43
root -12.6106 17.8647 -8.49044 0.697796 70.2051 -2.69053
lowerback 6.92877 -0.507898 -1.03918
upperback 0.160999 -0.703134 1.2039
thorax -3.69198 -0.316679 1.8987
lowerneck -18.8121 -3.09085 -9.3856
upperneck 35.5733 -2.8495 6.43583
head 16.0971 -1.29709 3.99383
rclavicle -3.37561e-014 -9.93923e-016
rhumerus -36.6427 -16.2037 -77.7258
rradius 27.581
rwrist 8.73557
rhand -14.0249 8.23716
rfingers 7.12502
rthumb 12.1051 -21.3927
lclavicle -3.37561e-014 -9.93923e-016
lhumerus -25.6431 -1.86025 89.7826
lradius 29.6136
lwrist -5.97186
lhand -20.5347 23.068
lfingers 7.12502
lthumb 5.82361 52.9679
rfemur -9.24612 3.08141 24.55
rtibia 27.3787
rfoot -17.7391 0.15035
rtoes 5.49042
lfemur -8.3314 -1.03588 -21.0759
ltibia 24.0173
lfoot -14.5473 5.21021
ltoes 3.94711
44
root -12.6107 17.8654 -8.47979 0.662584 70.806 -2.70311
lowerback 6.93897 -0.439099 -1.04294
upperback 0.231186 -0.608549 1.26927
thorax -3.62807 -0.269695 1.95859
lowerneck -18.8605 -3.10512 -9.5012
upperneck 35.6274 -2.77682 6.34786
head 16.1302 -1.29217 3.9931
rclavicle 3.47873e-016 -1.39149e-015
rhumerus -36.595 -16.3174 -77.5567
rradius 27.4813
rwrist 8.72167
rhand -14.3428 7.93534
rfingers 7.12502
rthumb 11.7986 -21.7123
lclavicle 3.47873e-016 -1.39149e-015
lhumerus -25.5329 -1.72963 89.9368
lradius 29.6776
lwrist -6.24522
lhand -20.5238 23.1524
lfingers 7.12502
lthumb 5.83408 53.0521
rfemur -9.19291 2.86936 24.601
rtibia 27.399
rfoot -17.7879 -0.247494
rtoes 6.14787
lfemur -8.34473 -0.841347 -20.9976
ltibia 23.9534
lfoot -14.5372 4.40645
ltoes 4.21041
45
root -12.6182 17.8656 -8.47047 0.813204 71.4952 -2.53587
lowerback 7.08324 -0.399094 -0.992715
upperback 0.223835 -0.554182 1.20648
thorax -3.71993 -0.243133 1.86172
lowerneck -18.8134 -3.131 -9.49151
upperneck 35.6722 -2.80532 6.33399
head 16.1448 -1.30131 3.98308
rclavicle 2.74074e-014 1.11319e-014
rhumerus -36.6371 -16.5072 -77.4925
rradius 27.3268
rwrist 8.59835
rhand -14.3678 8.02241
rfingers 7.12502
rthumb 11.7745 -21.6266
lclavicle 2.74074e-014 1.11319e-014
lhumerus -25.6106 -2.05679 89.9901
lradius 29.8956
lwrist -6.15033
lhand -20.7725 23.8391
lfingers 7.12502
lthumb 5.59401 53.7453
rfemur -9.15968 2.53321 24.6068
rtibia 27.3874
rfoot -17.8119 -0.65633
rtoes 6.42726
lfemur -8.41106 -0.90907 -20.9932
ltibia 23.9175
lfoot -14.5054 3.86709
ltoes 4.07115
46
root -12.6253 17.8652 -8.46406 0.9813 72.1196 -2.36729
lowerback 7.27229 -0.414852 -0.893536
upperback 0.178849 -0.570133 1.14466
thorax -3.87359 -0.251786 1.74617
lowerneck -18.8153 -3.13242 -9.54137
upperneck 35.7857 -2.7765 6.33756
head 16.2012 -1.29336 4.00627
rclavicle -1.8487e-014 -4.17448e-015
rhumerus -36.6607 -16.5132 -77.4844
rradius 27.1251
rwrist 8.60121
rhand -13.4052 8.30411
rfingers 7.12502
rthumb 12.7026 -21.2896
lclavicle -1.8487e-014 -4.17448e-015
lhumerus -25.7223 -2.3378 90.0651
lradius 30.0473
lwrist -5.61982
lhand -21.5984 24.8201
lfingers 7.12502
lthumb 4.79658 54.7458
rfemur -9.1367 2.52039 24.6056
rtibia 27.3617
rfoot -17.8207 -1.26417
rtoes 6.17247
lfemur -8.48105 -1.29187 -21.0307
ltibia 23.8876
lfoot -14.443 3.82521
ltoes 2.86037
